<svg xmlns="http://www.w3.org/2000/svg" version="1.0" viewBox="0 0 512 208"><g fill="#81B92F"><path d="M273.7 144h19.7c2.9 0 5.4.4 7.7 1.1 2.2.7 4 1.8 5.4 3.1 1.4 1.4 2.3 3.1 2.8 5.1.5 2 .5 4.3 0 6.8v.1c-.5 2.7-1.5 5.1-2.9 7.1-1.4 2.1-3.1 3.8-5.1 5.2-2 1.4-4.3 2.4-6.9 3.1-2.6.7-5.3 1-8.1 1H280l-2.5 13.1h-12.7l8.9-45.7zm14.3 22.8c2.3 0 4.2-.5 5.7-1.6s2.4-2.5 2.8-4.4v-.1c.4-2 0-3.5-1.1-4.5s-2.8-1.5-5.1-1.5h-6l-2.4 12.2h6.1zm27.1-12.4h12.5l-1.4 7.1c1.5-2.4 3.2-4.3 5.2-5.8 2-1.4 4.5-2.1 7.5-2l-2.5 13.1h-1c-3.3 0-6 1-8.1 2.9-2.1 1.9-3.6 4.9-4.4 9l-2.1 11h-12.5l6.8-35.3zm39 36.3c-2.8 0-5.4-.5-7.6-1.4-2.2-1-4-2.3-5.4-4-1.4-1.7-2.4-3.6-2.9-5.9-.5-2.2-.5-4.6-.1-7.1v-.1c.5-2.5 1.4-4.9 2.9-7.2 1.4-2.2 3.2-4.2 5.2-5.9 2.1-1.7 4.4-3 7-4 2.6-1 5.3-1.5 8.1-1.5s5.4.5 7.5 1.5c2.2 1 4 2.3 5.4 4 1.4 1.7 2.4 3.6 2.9 5.8.5 2.2.5 4.6.1 7.1v.1c-.5 2.5-1.4 4.9-2.9 7.2-1.4 2.3-3.2 4.2-5.2 5.9-2.1 1.7-4.4 3-7 4-2.4 1-5.1 1.5-8 1.5zm2.2-10.6c1.1 0 2.2-.2 3.2-.6 1-.4 1.9-1 2.7-1.7.8-.7 1.4-1.5 2-2.5.5-1 .9-2 1.1-3v-.1c.2-1.1.2-2.1 0-3.1s-.5-1.8-1.1-2.5c-.5-.7-1.2-1.3-2.1-1.7-.8-.4-1.8-.6-2.9-.6-1.1 0-2.2.2-3.2.6-1 .4-1.9 1-2.7 1.7-.8.7-1.4 1.5-2 2.5-.5 1-.9 2-1.1 3v.1c-.2 1.1-.2 2.1 0 3.1s.5 1.8 1.1 2.5c.5.7 1.2 1.3 2.1 1.7.9.4 1.8.6 2.9.6zm20.9 20.4c-1 0-1.9-.1-2.7-.2-.8-.1-1.6-.2-2.3-.3l1.6-8.3c.3 0 .5.1.8.1h.8c1.2 0 2.2-.3 2.9-.9.7-.6 1.2-1.7 1.5-3.2l6.5-33.4h12.5l-6.6 33.9c-.4 2.2-1.1 4.1-2 5.7-.9 1.6-1.9 2.8-3.2 3.8-1.3 1-2.7 1.7-4.4 2.1-1.5.5-3.4.7-5.4.7zm11.3-58.5h13l-1.8 9.2h-13l1.8-9.2zm27.9 48.7c-2.8 0-5.3-.4-7.4-1.3-2.1-.9-3.9-2.1-5.3-3.7s-2.3-3.5-2.8-5.8-.5-4.8.1-7.5v-.1c.5-2.6 1.4-5 2.7-7.2 1.3-2.2 2.9-4.2 4.8-5.9 1.9-1.7 4.1-3 6.4-4 2.4-1 4.9-1.4 7.5-1.4 3.1 0 5.6.5 7.7 1.6 2 1 3.6 2.5 4.7 4.2 1.1 1.8 1.8 3.8 2.1 6.2.3 2.3.1 4.8-.4 7.4-.1.4-.2.8-.2 1.2-.1.4-.2.9-.3 1.3h-23.7c.1 2 .7 3.4 1.9 4.4 1.1 1 2.7 1.4 4.7 1.4 1.5 0 2.9-.3 4.3-.9 1.4-.6 2.8-1.5 4.3-2.8l5.8 5.7c-2.1 2.2-4.6 3.9-7.3 5.2-2.9 1.4-6.1 2-9.6 2zm9.3-21.5c.2-2-.2-3.5-1.1-4.7-.9-1.2-2.2-1.7-3.9-1.7-1.7 0-3.1.6-4.4 1.7-1.3 1.2-2.3 2.7-3 4.7h12.4zm29.9 21.5c-2.7 0-5-.5-7.1-1.5-2.1-1-3.8-2.3-5.1-4-1.3-1.7-2.2-3.6-2.7-5.9-.5-2.2-.5-4.6 0-7.1v-.1c.5-2.5 1.4-4.9 2.8-7.1 1.4-2.2 3.1-4.2 5-5.9 2-1.7 4.2-3 6.8-4 2.5-1 5.2-1.5 8-1.5 3.7 0 6.6.7 8.8 2.2 2.2 1.4 3.8 3.4 4.8 5.8l-9.7 6.3c-.6-1.2-1.4-2.1-2.3-2.8-.9-.7-2.1-1-3.6-1-1 0-2 .2-2.9.6-.9.4-1.8 1-2.5 1.7-.8.7-1.4 1.5-1.9 2.5-.5.9-.9 2-1.1 3v.1c-.2 1.1-.3 2.2-.1 3.2.2 1 .5 1.8.9 2.6.5.7 1.1 1.3 1.9 1.7.8.4 1.7.6 2.8.6 1.5 0 2.8-.3 4-1 1.2-.7 2.3-1.6 3.6-2.7l7.2 6c-2.1 2.4-4.6 4.4-7.4 5.9-3 1.7-6.3 2.4-10.2 2.4zm34.3-.1c-3.8 0-6.5-.9-8.3-2.7-1.8-1.8-2.2-4.8-1.4-9l2.8-14.4h-4.2l1.9-10h4.2l1.7-9h12.5l-1.7 9h8.3l-1.9 10h-8.3l-2.3 12c-.2 1.3-.1 2.2.3 2.7.5.5 1.3.8 2.4.8.8 0 1.7-.1 2.5-.3.8-.2 1.6-.5 2.5-.9l-1.9 9.8c-1.3.6-2.6 1.1-4.2 1.5-1.5.3-3.1.5-4.9.5zM110.2 173c-13.3 0-25.7-3.7-36.4-10.1l-2.3 1.8-.7.5H39.4C56.8 184.7 82 197 110.2 197c28.2 0 53.4-12.3 70.8-31.8h-38.6c-9.6 5-20.5 7.8-32.2 7.8zm67.3-92.7L197.4 65c-2.4-5.6-5.3-10.8-8.6-15.8h-31.7c9.4 8.4 16.5 19 20.4 31.1z"/><path d="M39.5 102.2c0-15.1 4.7-29.1 12.8-40.6L44 50.8l-3.1-4.1h25.4c12.1-9.6 27.3-15.3 43.9-15.3 16.6 0 31.8 5.7 43.9 15.3h33C169.8 23 141.9 7.5 110.2 7.5c-52.3 0-94.8 42.4-94.8 94.8 0 15.3 3.6 29.7 10.1 42.5l19.5-15c-3.5-8.5-5.5-17.8-5.5-27.6zm154.6-24c2.3-1.2 4.6-2.3 6.9-3.2-.8-2.5-1.6-5-2.6-7.5l-20.1 15.4c.6 2.1 1.1 4.3 1.5 6.5 3.7-4.2 8.6-8.1 14.3-11.2zM175.3 130c-1.6 3.6-3.4 7.1-5.5 10.4l15.2 20c4.6-5.9 8.4-12.3 11.5-19.2-8.9-2-16.4-6.1-21.2-11.2z"/></g><g fill="#FFF"><path d="M359.4 72.4c-15.5 0-28.1 8-34.7 13.2l1.9-10.1h-38.4l-13.5 62.7h40.2l6.9-36.5c3.4-4.3 8.9-9.8 15.4-9.8 10.6 0 8.3 8.5 7.4 15.1l-5.4 30.2 39.2.1s4.6-24 5.1-26.7c5.4-26.3-1-38.2-24.1-38.2zM273.8 112s15.3-39.7-41.1-39.7C176.4 72.3 172 112 172 112s-7 28.9 47.6 28.9 52.4-21.3 52.4-21.3h-40.2s-3.1 8.4-11.4 8.4-13.5-3.1-11.4-16h64.8zm-45.4-25.4c14 0 9.6 12.9 9.6 12.9h-24s.4-12.9 14.4-12.9z"/><path d="M218.1 49.3h-63.8L118.2 77 97.1 49.3H46l39.9 52.4-79.6 61H70l39.5-30.2 23 30.2h51.1l-41.9-54.9z"/><path d="M71.6 161.5c-11-7.2-19.9-17.3-25.5-29.3L26.7 147c3 5.6 6.5 10.8 10.6 15.7H70l1.6-1.2zm-17.8-102c2.8-3.7 6-7.1 9.5-10.2H46l7.8 10.2zM147 162.7h36.2l.2-.2-15.1-19.8c-5.6 8-12.9 14.9-21.3 20z"/></g></svg>